<svg width="15" height="15" viewBox="0 0 15 15" fill="none" xmlns="http://www.w3.org/2000/svg">
<path d="M7.5 0C3.36563 0 0 3.36313 0 7.5C0 11.6344 3.36563 15 7.5 15C11.6344 15 15 11.6344 15 7.5C15 3.3625 11.6344 0 7.5 0ZM0.75625 7.49937C0.75625 6.5225 0.964375 5.59438 1.34 4.75625L4.5575 13.5687C2.30687 12.4744 0.75625 10.1675 0.75625 7.49937ZM7.5 14.2438C6.8375 14.2438 6.19937 14.1469 5.595 13.9681L7.61813 8.08937L9.69 13.7688C9.705 13.8025 9.72063 13.8319 9.73813 13.8625C9.03938 14.1075 8.28625 14.2438 7.5 14.2438ZM8.42812 4.34063V4.34C8.83312 4.31875 9.19875 4.27687 9.19875 4.27687C9.56188 4.23437 9.51937 3.69938 9.15625 3.72C9.15625 3.72 8.06437 3.80437 7.36 3.80437C6.6975 3.80437 5.58438 3.72 5.58438 3.72C5.22188 3.69875 5.18 4.25562 5.5425 4.27687C5.5425 4.27687 5.88688 4.31937 6.25 4.34L7.29937 7.21875L5.82375 11.6431L3.36875 4.34C3.77437 4.31875 4.14 4.27687 4.14 4.27687C4.50313 4.23437 4.46063 3.69938 4.0975 3.72C4.0975 3.72 3.00562 3.80437 2.30125 3.80437C2.17437 3.80437 2.02562 3.80125 1.86562 3.79562C3.0725 1.96562 5.14375 0.75625 7.5 0.75625C9.25437 0.75625 10.8538 1.42812 12.0544 2.525C12.0238 2.52187 11.9969 2.51938 11.9669 2.51938C11.3044 2.51938 10.8356 3.09688 10.8356 3.71688C10.8356 4.27313 11.1562 4.74187 11.4981 5.29875C11.755 5.74625 12.055 6.32375 12.055 7.15875C12.055 7.73625 11.8344 8.40437 11.5406 9.33937L10.8687 11.5863L8.42812 4.34063ZM13.4187 4.26437C13.945 5.22625 14.2444 6.32688 14.2444 7.50063C14.2444 9.98938 12.8956 12.1606 10.8906 13.3281L10.89 13.3275L12.9494 7.3725C13.3331 6.41062 13.4637 5.64312 13.4637 4.95625C13.4637 4.70875 13.4487 4.47875 13.4187 4.26437V4.26437Z" fill="black"/>
</svg>
